<svg id="visual" viewBox="0 0 960 540" width="960" height="540" xmlns="http://www.w3.org/2000/svg" xmlns:xlink="http://www.w3.org/1999/xlink" version="1.1"><rect x="0" y="0" width="960" height="540" fill="#fff"></rect><path d="M0 412L22.8 401.5C45.7 391 91.3 370 137 359.5C182.7 349 228.3 349 274 351.2C319.7 353.3 365.3 357.7 411.2 368.8C457 380 503 398 548.8 414.7C594.7 431.3 640.3 446.7 686 454C731.7 461.3 777.3 460.7 823 453.3C868.7 446 914.3 432 937.2 425L960 418L960 541L937.2 541C914.3 541 868.7 541 823 541C777.3 541 731.7 541 686 541C640.3 541 594.7 541 548.8 541C503 541 457 541 411.2 541C365.3 541 319.7 541 274 541C228.3 541 182.7 541 137 541C91.3 541 45.7 541 22.8 541L0 541Z" fill="#C53678" stroke-linecap="round" stroke-linejoin="miter"></path></svg>